<?xml version="1.0" encoding="utf-8"?>
<!-- Generator: Adobe Illustrator 25.4.1, SVG Export Plug-In . SVG Version: 6.00 Build 0)  -->
<svg version="1.1" id="Layer_1" xmlns="http://www.w3.org/2000/svg" xmlns:xlink="http://www.w3.org/1999/xlink" x="0px" y="0px"
	 viewBox="0 0 1080 677" style="enable-background:new 0 0 1080 677;" xml:space="preserve">
<style type="text/css">
	.st0{fill:#1A56DB;}
	.st1{font-family:'Nexa-Heavy';}
	.st2{font-size:194.6302px;}
	.st3{fill:#6C9AFF;}
</style>
<text transform="matrix(1 0 0 1 8.5205 635.4023)" class="st0 st1 st2">note</text>
<text transform="matrix(1 0 0 1 625.7354 649.2979)" class="st3 st1 st2">code</text>
<polygon class="st3" points="610.37,-0.05 610.37,79.26 379.02,200.68 533.82,282.33 533.82,384.4 379.02,304.71 379.02,119.03 "/>
<polygon class="st0" points="510,477.96 510,398.65 741.35,277.23 586.55,195.58 586.55,93.51 741.35,173.2 741.35,358.88 "/>
<polygon class="st3" points="625.63,499.53 625.63,532.67 528.98,583.39 593.65,617.51 593.65,660.15 528.98,626.86 528.98,549.28 
	"/>
<polygon class="st0" points="432.37,676.78 432.37,643.65 529.03,592.92 464.35,558.81 464.35,516.17 529.03,549.46 529.03,627.03 
	"/>
</svg>
