<?xml version="1.0" encoding="utf-8"?>
<!-- Generator: Adobe Illustrator 25.4.1, SVG Export Plug-In . SVG Version: 6.00 Build 0)  -->
<svg version="1.1" id="Layer_1" xmlns="http://www.w3.org/2000/svg" xmlns:xlink="http://www.w3.org/1999/xlink" x="0px" y="0px"
	 viewBox="0 0 1080 677" style="enable-background:new 0 0 1080 677;" xml:space="preserve">
<style type="text/css">
	.st0{fill:#1A56DB;}
	.st1{fill:#6C9AFF;}
</style>
<g>
	<path class="st0" d="M107.88,548.79c7.07,7.79,10.61,18.56,10.61,32.31v54.3H87.93v-52.55c0-6.23-1.56-11.09-4.67-14.6
		c-3.11-3.5-7.4-5.25-12.85-5.25c-5.97,0-10.77,2.01-14.4,6.03c-3.63,4.02-5.45,9.28-5.45,15.77v50.6H20v-96.15h26.47l1.95,11.29
		c3.76-4.28,8.27-7.59,13.53-9.93c5.26-2.33,11.06-3.5,17.42-3.5C91.3,537.11,100.81,541.01,107.88,548.79z"/>
	<path class="st0" d="M159.65,631.22c-7.98-4.21-14.11-10.09-18.39-17.61c-4.28-7.52-6.42-16.28-6.42-26.27
		c0-9.99,2.14-18.75,6.42-26.28c4.28-7.52,10.41-13.4,18.39-17.61c7.98-4.21,17.29-6.33,27.93-6.33c10.64,0,19.98,2.11,28.03,6.33
		c8.04,4.22,14.21,10.09,18.49,17.61c4.28,7.53,6.42,16.29,6.42,26.28c0,9.99-2.14,18.75-6.42,26.27
		c-4.28,7.53-10.45,13.4-18.49,17.61c-8.05,4.21-17.39,6.33-28.03,6.33C176.94,637.54,167.63,635.43,159.65,631.22z M203.93,604.85
		c4.15-4.54,6.23-10.38,6.23-17.52c0-7.13-2.08-12.97-6.23-17.52c-4.15-4.54-9.6-6.81-16.35-6.81c-6.62,0-12,2.27-16.15,6.81
		c-4.15,4.54-6.23,10.38-6.23,17.52c0,7.14,2.07,12.98,6.23,17.52c4.15,4.54,9.54,6.81,16.15,6.81
		C194.32,611.66,199.77,609.39,203.93,604.85z"/>
	<path class="st0" d="M325.96,631.7c-7.53,3.76-16.03,5.64-25.5,5.64c-10.51,0-18.82-2.95-24.91-8.86
		c-6.1-5.9-9.15-15.41-9.15-28.51v-36.4h-16.35v-24.33h16.35v-23.94l30.36-3.31v27.25h23.94v24.33h-23.94v36.4
		c0,3.89,0.97,6.78,2.92,8.66c1.95,1.88,4.6,2.82,7.98,2.82c3.76,0,7.46-0.91,11.09-2.72L325.96,631.7z"/>
	<path class="st0" d="M412.57,543.05c7.65,3.96,13.53,9.54,17.61,16.74c4.09,7.2,6.13,15.6,6.13,25.21c0,3.11-0.33,6.94-0.97,11.48
		H364.7c0.91,4.93,3.57,8.92,7.98,11.97c4.41,3.05,10.05,4.57,16.93,4.57c4.8,0,9.47-0.71,14.01-2.14
		c4.54-1.43,8.43-3.44,11.68-6.03l15.96,17.13c-5.45,5.06-11.91,8.95-19.37,11.68c-7.46,2.73-15.41,4.09-23.84,4.09
		c-11.16,0-20.83-2.04-29-6.13c-8.17-4.09-14.47-9.89-18.88-17.42c-4.41-7.52-6.62-16.41-6.62-26.66c0-9.86,2.17-18.62,6.52-26.28
		c4.35-7.65,10.41-13.59,18.2-17.81c7.79-4.21,16.8-6.33,27.05-6.33C395.84,537.11,404.92,539.09,412.57,543.05z M371.41,565.92
		c-3.83,3.11-6,7.46-6.52,13.04h42.43c-0.39-5.58-2.43-9.93-6.13-13.04c-3.7-3.11-8.66-4.67-14.89-4.67
		C380.2,561.25,375.24,562.81,371.41,565.92z"/>
</g>
<g>
	<path class="st1" d="M656.78,645.31c-7.98-4.09-14.14-9.89-18.49-17.42c-4.35-7.52-6.52-16.35-6.52-26.47
		c0-9.99,2.21-18.78,6.62-26.37c4.41-7.59,10.57-13.49,18.49-17.71c7.91-4.21,17.06-6.33,27.44-6.33c7.13,0,13.95,1.26,20.44,3.79
		c6.49,2.53,12.26,6.26,17.32,11.19l-16.93,18.49c-5.45-5.06-11.87-7.59-19.27-7.59c-7.01,0-12.72,2.24-17.13,6.71
		c-4.41,4.48-6.62,10.35-6.62,17.61c0,7.27,2.17,13.14,6.52,17.61c4.35,4.48,10.09,6.71,17.22,6.71c7.91,0,14.66-2.79,20.24-8.37
		l17.32,18.3c-10.77,10.64-23.62,15.96-38.54,15.96C674.13,651.44,664.76,649.4,656.78,645.31z"/>
	<path class="st1" d="M754.87,645.11c-7.98-4.21-14.11-10.09-18.39-17.61c-4.28-7.52-6.42-16.28-6.42-26.27
		c0-9.99,2.14-18.75,6.42-26.28c4.28-7.52,10.41-13.4,18.39-17.61c7.98-4.21,17.29-6.33,27.93-6.33c10.64,0,19.98,2.11,28.03,6.33
		c8.04,4.22,14.21,10.09,18.49,17.61c4.28,7.53,6.42,16.29,6.42,26.28c0,9.99-2.14,18.75-6.42,26.27
		c-4.28,7.53-10.45,13.4-18.49,17.61c-8.05,4.21-17.39,6.33-28.03,6.33C772.16,651.44,762.85,649.33,754.87,645.11z M799.15,618.74
		c4.15-4.54,6.23-10.38,6.23-17.52c0-7.13-2.08-12.97-6.23-17.52c-4.15-4.54-9.6-6.81-16.35-6.81c-6.62,0-12,2.27-16.15,6.81
		c-4.15,4.54-6.23,10.38-6.23,17.52c0,7.14,2.07,12.98,6.23,17.52c4.15,4.54,9.54,6.81,16.15,6.81
		C789.55,625.55,795,623.28,799.15,618.74z"/>
	<path class="st1" d="M954.08,513.06V649.3h-26.47l-1.95-11.48c-8.17,8.95-18.82,13.43-31.92,13.43c-8.95,0-16.9-2.11-23.84-6.33
		c-6.94-4.21-12.36-10.12-16.25-17.71c-3.89-7.59-5.84-16.25-5.84-25.98s1.95-18.39,5.84-25.98s9.31-13.49,16.25-17.71
		c6.94-4.21,14.89-6.33,23.84-6.33c11.81,0,21.73,3.7,29.78,11.09v-49.24H954.08z M917.49,618.84c4.28-4.48,6.42-10.35,6.42-17.61
		c0-7.27-2.14-13.14-6.42-17.61c-4.28-4.48-9.8-6.71-16.54-6.71c-6.75,0-12.23,2.27-16.45,6.81c-4.22,4.54-6.33,10.38-6.33,17.52
		c0,7.14,2.11,12.98,6.33,17.52c4.21,4.54,9.7,6.81,16.45,6.81C907.69,625.55,913.21,623.31,917.49,618.84z"/>
	<path class="st1" d="M1050.81,556.95c7.65,3.96,13.53,9.54,17.61,16.74c4.09,7.2,6.13,15.6,6.13,25.21c0,3.11-0.33,6.94-0.97,11.48
		h-70.65c0.91,4.93,3.57,8.92,7.98,11.97c4.41,3.05,10.05,4.57,16.93,4.57c4.8,0,9.47-0.71,14.01-2.14
		c4.54-1.43,8.43-3.44,11.68-6.03l15.96,17.13c-5.45,5.06-11.91,8.95-19.37,11.68c-7.46,2.73-15.41,4.09-23.84,4.09
		c-11.16,0-20.83-2.04-29-6.13c-8.17-4.09-14.47-9.89-18.88-17.42c-4.41-7.52-6.62-16.41-6.62-26.66c0-9.86,2.17-18.62,6.52-26.28
		c4.35-7.65,10.41-13.59,18.2-17.81c7.79-4.21,16.8-6.33,27.05-6.33C1034.07,551.01,1043.15,552.99,1050.81,556.95z M1009.64,579.81
		c-3.83,3.11-6,7.46-6.52,13.04h42.43c-0.39-5.58-2.43-9.93-6.13-13.04c-3.7-3.11-8.66-4.67-14.89-4.67
		C1018.43,575.14,1013.47,576.7,1009.64,579.81z"/>
</g>
<polygon class="st1" points="610.37,-0.05 610.37,79.26 379.02,200.68 533.82,282.33 533.82,384.4 379.02,304.71 379.02,119.03 "/>
<polygon class="st0" points="510,477.96 510,398.65 741.35,277.23 586.55,195.58 586.55,93.51 741.35,173.2 741.35,358.88 "/>
<polygon class="st1" points="625.63,499.53 625.63,532.67 528.98,583.39 593.65,617.51 593.65,660.15 528.98,626.86 528.98,549.28 
	"/>
<polygon class="st0" points="432.37,676.78 432.37,643.65 529.03,592.92 464.35,558.81 464.35,516.17 529.03,549.46 529.03,627.03 
	"/>
</svg>
